<?xml version="1.0" standalone="no"?><!DOCTYPE svg PUBLIC "-//W3C//DTD SVG 1.1//EN" "http://www.w3.org/Graphics/SVG/1.1/DTD/svg11.dtd"><svg width="100%" height="100%" viewBox="0 0 96 96" version="1.1" xmlns="http://www.w3.org/2000/svg" xmlns:xlink="http://www.w3.org/1999/xlink" xml:space="preserve" style="fill-rule:evenodd;clip-rule:evenodd;stroke-linejoin:round;stroke-miterlimit:1.41421;"><g id="Calque1"><path d="M93,36.0008l-33,0l0,-33c0,-1.65781 -1.34297,-3.00078 -3.00078,-3.00078l-18,0c-1.65625,0 -2.99922,1.34297 -2.99922,3.00078l0,33l-33,0c-1.65703,0 -3,1.34297 -3,2.99922l7.09975e-31,18c6.53584e-32,1.65703 1.34297,3 3,3l33,0l0,33.0008c0,1.65625 1.34297,3 2.99922,3l18,0c1.65781,0 3.00078,-1.34375 3.00078,-3l0,-33.0008l33,0c1.65625,0 3,-1.34297 3,-3l0,-18c0,-1.65625 -1.34375,-2.99922 -3,-2.99922Z" style="fill:#231f20;fill-rule:nonzero;"/></g></svg>