<?xml version="1.0" standalone="no"?><!DOCTYPE svg PUBLIC "-//W3C//DTD SVG 1.1//EN" "http://www.w3.org/Graphics/SVG/1.1/DTD/svg11.dtd"><svg width="100%" height="100%" viewBox="0 0 96 96" version="1.1" xmlns="http://www.w3.org/2000/svg" xmlns:xlink="http://www.w3.org/1999/xlink" xml:space="preserve" style="fill-rule:evenodd;clip-rule:evenodd;stroke-linejoin:round;stroke-miterlimit:1.41421;"><g id="Calque1"><path d="M48,96c5.28,0 9.58,-4.3 9.58,-9.6l-19.2,0c0,5.3 4.34,9.6 9.62,9.6ZM79.2,67.2l0,-26.38c0,-14.9 -10.08,-26.9 -24,-30.24l0,-3.38c0,-3.84 -3.36,-7.2 -7.2,-7.2c-3.84,0 -7.2,3.36 -7.2,7.2l0,3.38c-13.92,3.34 -24,15.34 -24,30.24l0,26.38l-9.6,9.62l0,4.8l81.6,0l0,-4.8l-9.6,-9.62Z" style="fill:#231f20;fill-rule:nonzero;"/></g></svg>