<?xml version="1.0" standalone="no"?><!DOCTYPE svg PUBLIC "-//W3C//DTD SVG 1.1//EN" "http://www.w3.org/Graphics/SVG/1.1/DTD/svg11.dtd"><svg width="100%" height="100%" viewBox="0 0 96 96" version="1.1" xmlns="http://www.w3.org/2000/svg" xmlns:xlink="http://www.w3.org/1999/xlink" xml:space="preserve" style="fill-rule:evenodd;clip-rule:evenodd;stroke-linejoin:round;stroke-miterlimit:1.41421;"><g id="Calque1"><path d="M95.625,49.4791c0.499999,-0.921571 0.499999,-2.03661 0,-2.95818c-9.17128,-16.885 -27.0589,-28.3478 -47.625,-28.3478c-20.5661,0 -38.4544,11.4628 -47.625,28.3478c-0.500002,0.921571 -0.500002,2.03661 0,2.95818c9.17127,16.885 27.0589,28.3478 47.625,28.3478c20.5661,0 38.4537,-11.4628 47.625,-28.3478ZM48,70.8792c-12.6366,0 -22.8792,-10.2438 -22.8792,-22.8792c0,-12.6353 10.2425,-22.8792 22.8792,-22.8792c12.6353,0 22.8792,10.2438 22.8792,22.8792c0,12.6366 -10.2438,22.8792 -22.8792,22.8792ZM48,36.3405c-0.962749,0 -1.89739,0.117646 -2.79216,0.337256c0.916341,1.06013 1.47125,2.44118 1.47125,3.9523c0,3.34119 -2.70785,6.05035 -6.04904,6.05035c-1.51177,0 -2.89282,-0.555559 -3.95295,-1.4719c-0.219611,0.89412 -0.337256,1.82942 -0.337256,2.79151c0,6.43989 5.22028,11.6602 11.6595,11.6602c6.43989,0 11.6595,-5.22028 11.6595,-11.6602c0,-6.43924 -5.21962,-11.6595 -11.6589,-11.6595Z" style="fill:#231f20;"/></g></svg>