<?xml version="1.0" standalone="no"?><!DOCTYPE svg PUBLIC "-//W3C//DTD SVG 1.1//EN" "http://www.w3.org/Graphics/SVG/1.1/DTD/svg11.dtd"><svg width="100%" height="100%" viewBox="0 0 96 96" version="1.1" xmlns="http://www.w3.org/2000/svg" xmlns:xlink="http://www.w3.org/1999/xlink" xml:space="preserve" style="fill-rule:evenodd;clip-rule:evenodd;stroke-linejoin:round;stroke-miterlimit:1.41421;"><g id="Calque1"><path d="M95.6984,42.6716c-0.151808,-1.34991 -1.72497,-2.36496 -3.08531,-2.36496c-4.39801,0 -8.3019,-2.58225 -9.93906,-6.57693c-1.67139,-4.09142 -0.593844,-8.863 2.68346,-11.8694c1.0329,-0.943598 1.15792,-2.52272 0.293206,-3.62111c-2.25184,-2.85759 -4.81028,-5.44133 -7.60387,-7.67978c-1.09393,-0.876626 -2.69983,-0.754584 -3.64939,0.296176c-2.86057,3.16865 -7.99977,4.34592 -11.9721,2.68941c-4.1316,-1.73986 -6.73915,-5.92653 -6.48316,-10.4213c0.0848359,-1.41242 -0.948064,-2.64029 -2.35602,-2.8055c-3.58539,-0.415241 -7.20351,-0.42715 -10.7993,-0.0282741c-1.3901,0.154785 -2.423,1.35289 -2.37537,2.74746c0.154785,4.45159 -2.48253,8.56534 -6.57395,10.2412c-3.92473,1.60442 -9.02821,0.43459 -11.8828,-2.70578c-0.943601,-1.03439 -2.52272,-1.16238 -3.62259,-0.303623c-2.87545,2.25631 -5.49194,4.84154 -7.76461,7.67681c-0.885556,1.10285 -0.754583,2.69983 0.285759,3.64789c3.3413,3.02577 4.42034,7.83754 2.68495,11.9766c-1.658,3.94705 -5.75388,6.48912 -10.4436,6.48912c-1.52256,-0.0491151 -2.60606,0.973368 -2.77425,2.35751c-0.421197,3.60473 -0.425662,7.27942 -0.0208366,10.9139c0.15181,1.35587 1.7726,2.36198 3.14782,2.36198c4.18072,-0.10567 8.19325,2.48105 9.87804,6.57693c1.67735,4.0929 0.598309,8.86151 -2.68495,11.8709c-1.02695,0.943601 -1.15792,2.51974 -0.290224,3.61664c2.22803,2.83973 4.78796,5.42496 7.59197,7.68276c1.09988,0.885556 2.69983,0.762025 3.65385,-0.290224c2.87248,-3.1761 8.01019,-4.35188 11.9662,-2.6909c4.14351,1.7339 6.74957,5.92057 6.49507,10.4168c-0.0833438,1.41391 0.952533,2.64476 2.35454,2.8055c1.83511,0.214319 3.68064,0.319991 5.53063,0.319991c1.75623,0 3.51246,-0.0952531 5.26869,-0.290224c1.39159,-0.153298 2.423,-1.35438 2.37537,-2.74894c-0.159251,-4.45011 2.48253,-8.56385 6.56948,-10.2367c3.95003,-1.61335 9.03118,-0.431616 11.8873,2.70281c0.949553,1.0329 2.51677,1.15941 3.6226,0.303619c2.87098,-2.25035 5.48151,-4.83409 7.76461,-7.6768c0.887043,-1.10136 0.760532,-2.69983 -0.285759,-3.64939c-3.3413,-3.02429 -4.42481,-7.83754 -2.68942,-11.9736c1.63121,-3.89198 5.57677,-6.50698 9.82,-6.50698l0.592352,0.0163717c1.37819,0.111625 2.64476,-0.949556 2.80997,-2.35454c0.424173,-3.6092 0.428635,-7.28091 0.0208343,-10.9154ZM48.0748,64.114c-8.82877,0 -16.01,-7.18268 -16.01,-16.0114c0,-8.82877 7.18119,-16.0114 16.01,-16.0114c8.83026,0 16.0114,7.18268 16.0114,16.0114c0,8.82877 -7.18119,16.0114 -16.0114,16.0114Z" style="fill:#231f20;"/></g></svg>