<?xml version="1.0" standalone="no"?><!DOCTYPE svg PUBLIC "-//W3C//DTD SVG 1.1//EN" "http://www.w3.org/Graphics/SVG/1.1/DTD/svg11.dtd"><svg width="100%" height="100%" viewBox="0 0 96 96" version="1.1" xmlns="http://www.w3.org/2000/svg" xmlns:xlink="http://www.w3.org/1999/xlink" xml:space="preserve" style="fill-rule:evenoddclip-rule:evenoddstroke-linejoin:roundstroke-miterlimit:1.41421"><g id="Calque1"><path d="M93.8668,83.425l-19.7889,-19.7889c4.76799,-6.88644 7.15198,-14.5607 7.15198,-23.0197c0,-5.50266 -1.06807,-10.7604 -3.20128,-15.7822c-2.13615,-5.01583 -5.01878,-9.3442 -8.65378,-12.9792c-3.635,-3.635 -7.95747,-6.52057 -12.9792,-8.65378c-5.02173,-2.1332 -10.2795,-3.20128 -15.7792,-3.20128c-5.50266,0 -10.7604,1.06808 -15.7822,3.20128c-5.01583,2.13321 -9.34419,5.01878 -12.9792,8.65378c-3.635,3.635 -6.52058,7.96336 -8.65378,12.9792c-2.1332,5.02173 -3.20128,10.2795 -3.20128,15.7822c0,5.49971 1.06808,10.7545 3.20128,15.7763c2.1332,5.02173 5.01878,9.34714 8.65378,12.9792c3.635,3.63795 7.96337,6.52058 12.9792,8.65673c5.02173,2.1332 10.2795,3.20423 15.7822,3.20423c8.45905,0 16.1362,-2.38694 23.0197,-7.15788l19.7889,19.7329c1.38083,1.45754 3.10982,2.19221 5.18696,2.19221c2.00338,0 3.73532,-0.734671 5.19581,-2.19221c1.46049,-1.46344 2.19221,-3.19538 2.19221,-5.19286c0,-2.03879 -0.711071,-3.77072 -2.13321,-5.18991ZM58.874,58.874c-5.05713,5.06009 -11.144,7.58571 -18.2576,7.58571c-7.11658,0 -13.2034,-2.52857 -18.2606,-7.58571c-5.06009,-5.05713 -7.5857,-11.144 -7.5857,-18.2576c0,-7.11657 2.52562,-13.2064 7.5857,-18.2606c5.05713,-5.05713 11.144,-7.5857 18.2606,-7.5857c7.11362,0 13.2005,2.52857 18.2576,7.5857c5.06009,5.05418 7.58865,11.144 7.58865,18.2606c0,7.11362 -2.52857,13.2005 -7.58865,18.2576Z" style="fill:#231f20fill-rule:nonzero"/></g></svg>